<!DOCTYPE svg PUBLIC "-//W3C//DTD SVG 1.1//EN" "http://www.w3.org/Graphics/SVG/1.1/DTD/svg11.dtd">
<!-- Uploaded to: SVG Repo, www.svgrepo.com, Transformed by: SVG Repo Mixer Tools -->
<svg width="187px" height="187px" viewBox="-15.36 -15.36 94.72 94.72" xmlns="http://www.w3.org/2000/svg" stroke-width="6.4" stroke="#ffffff" fill="none" transform="rotate(0)matrix(1, 0, 0, 1, 0, 0)">
<g id="SVGRepo_bgCarrier" stroke-width="0" transform="translate(2.5599999999999987,2.5599999999999987), scale(0.92)">
<path transform="translate(-15.36, -15.36), scale(2.96)" d="M16,30.28045217361715C20.430138630884574,30.166323805785378,24.930270556789342,28.787351123051046,27.588340659638806,25.241393297365914C30.167395960014833,21.800843962177435,30.243493459054655,17.141662001595805,28.914238679075922,13.052409294784052C27.72722096362388,9.400727556221169,24.463089864316668,7.255448105644418,21.124986694412623,5.357855471903658C17.327162208865516,3.198927661346609,13.114196886614106,-0.06096713571531431,9.177396746014459,1.8327183627749726C5.239916354704273,3.726731076480631,5.452934361819857,9.11101753063529,4.471282130283397,13.368645378152072C3.4850139808313187,17.64629341207298,1.1652831012566423,22.231158474994505,3.6379594778916022,25.858398348667382C6.231455349579272,29.6628718037799,11.397155394396098,30.39902975910367,16,30.28045217361715" fill="#3C47E9" strokewidth="0"/>
</g>
<g id="SVGRepo_tracerCarrier" stroke-linecap="round" stroke-linejoin="round" stroke="#2c5bba" stroke-width="0.8960000000000001"/>
<g id="SVGRepo_iconCarrier">
<path d="M16.59,30.62C18.13,17,30.37,21.78,30.37,21.78s4.53-8.14,12.24-5.47,6.48,11.08,6.48,11.08a10.86,10.86,0,0,1,7.48,10.37c0,4-2.66,11.22-9.93,11.22H17.43s-10,0-10-10c0-8.21,10.87-9.4,13.45-7.84" stroke-linecap="round"/>
</g>
</svg>